<svg xmlns="http://www.w3.org/2000/svg" xmlns:xlink="http://www.w3.org/1999/xlink" width="500" zoomAndPan="magnify" viewBox="0 0 375 374.999991" height="500" preserveAspectRatio="xMidYMid meet" version="1.0"><defs><g/></defs><g fill="#000000" fill-opacity="1"><g transform="translate(72.555086, 169.765537)"><g><path d="M 15.703125 -18.90625 C 13.660156 -19.96875 11.847656 -20.5 10.265625 -20.5 C 9.085938 -20.5 8.15625 -20.238281 7.46875 -19.71875 C 6.789062 -19.195312 6.453125 -18.476562 6.453125 -17.5625 C 6.453125 -16.675781 6.878906 -15.929688 7.734375 -15.328125 C 8.597656 -14.734375 9.800781 -14.144531 11.34375 -13.5625 C 12.519531 -13.144531 13.523438 -12.671875 14.359375 -12.140625 C 15.191406 -11.609375 15.878906 -10.882812 16.421875 -9.96875 C 16.960938 -9.0625 17.234375 -7.910156 17.234375 -6.515625 C 17.234375 -5.253906 16.921875 -4.113281 16.296875 -3.09375 C 15.671875 -2.070312 14.757812 -1.253906 13.5625 -0.640625 C 12.363281 -0.0351562 10.953125 0.265625 9.328125 0.265625 C 7.890625 0.265625 6.472656 0.0390625 5.078125 -0.40625 C 3.691406 -0.851562 2.457031 -1.46875 1.375 -2.25 L 3.0625 -5.21875 C 3.863281 -4.601562 4.8125 -4.09375 5.90625 -3.6875 C 7.007812 -3.289062 8.03125 -3.09375 8.96875 -3.09375 C 10.113281 -3.09375 11.117188 -3.367188 11.984375 -3.921875 C 12.859375 -4.484375 13.296875 -5.335938 13.296875 -6.484375 C 13.296875 -7.398438 12.929688 -8.160156 12.203125 -8.765625 C 11.472656 -9.378906 10.457031 -9.9375 9.15625 -10.4375 C 7.8125 -10.925781 6.691406 -11.414062 5.796875 -11.90625 C 4.910156 -12.394531 4.144531 -13.078125 3.5 -13.953125 C 2.863281 -14.835938 2.546875 -15.945312 2.546875 -17.28125 C 2.546875 -19.207031 3.203125 -20.765625 4.515625 -21.953125 C 5.828125 -23.140625 7.5625 -23.773438 9.71875 -23.859375 C 11.28125 -23.859375 12.648438 -23.675781 13.828125 -23.3125 C 15.015625 -22.957031 16.117188 -22.457031 17.140625 -21.8125 Z M 15.703125 -18.90625 "/></g></g></g><g fill="#000000" fill-opacity="1"><g transform="translate(117.58644, 169.765537)"><g><path d="M 22.59375 1.046875 L 16.984375 -13.109375 L 10.6875 1.109375 L 1.203125 -23.59375 L 5.640625 -23.59375 L 11.171875 -7.75 L 15.125 -17.859375 L 12.84375 -23.59375 L 16.59375 -23.59375 L 22.6875 -8.21875 L 27.765625 -23.59375 L 31.84375 -23.59375 Z M 22.59375 1.046875 "/></g></g></g><g fill="#000000" fill-opacity="1"><g transform="translate(176.691542, 169.765537)"><g><path d="M 22.453125 -23.734375 L 11.828125 1.109375 L 1.203125 -23.734375 L 5.734375 -23.734375 L 12 -8.140625 L 17.984375 -23.734375 Z M 22.453125 -23.734375 "/></g></g></g><g fill="#000000" fill-opacity="1"><g transform="translate(226.41415, 169.765537)"><g><path d="M 24.21875 -23.734375 L 24.21875 0.84375 L 24.125 0.84375 L 7 -15.75 L 7.109375 0 L 3.265625 0 L 3.265625 -24.546875 L 3.453125 -24.546875 L 20.5 -7.75 L 20.4375 -23.734375 Z M 24.21875 -23.734375 "/></g></g></g><g fill="#000000" fill-opacity="1"><g transform="translate(279.980976, 169.765537)"><g><path d="M 7 -13.421875 L 7.53125 -14.171875 L 16.453125 -23.734375 L 21.34375 -23.734375 L 11.53125 -13.359375 L 21.703125 0 L 16.890625 0 L 8.765625 -10.953125 L 7.109375 -9.328125 L 7.109375 0 L 3.265625 0 L 3.265625 -23.734375 L 7.109375 -23.734375 L 7.109375 -14.640625 Z M 7 -13.421875 "/></g></g></g><g fill="#000000" fill-opacity="1"><g transform="translate(139.955442, 221.540332)"><g><path d="M 7.0625 -23.71875 L 7.0625 -3.65625 L 18.765625 -3.65625 L 18.765625 0 L 3.265625 0 L 3.265625 -23.71875 Z M 7.0625 -23.71875 "/></g></g></g><g fill="#000000" fill-opacity="1"><g transform="translate(176.112709, 221.540332)"><g><path d="M 15.4375 -5.578125 L 6.8125 -5.578125 L 4.53125 0 L 0.78125 0 L 11.265625 -24.6875 L 11.5 -24.6875 L 21.984375 0 L 17.625 0 Z M 14.171875 -8.828125 L 11.203125 -16.328125 L 8.140625 -8.828125 Z M 14.171875 -8.828125 "/></g></g></g><g fill="#000000" fill-opacity="1"><g transform="translate(214.516833, 221.540332)"><g><path d="M 14.5 -12.375 C 15.820312 -11.832031 16.859375 -11.082031 17.609375 -10.125 C 18.359375 -9.175781 18.734375 -8.070312 18.734375 -6.8125 C 18.734375 -4.507812 17.957031 -2.796875 16.40625 -1.671875 C 14.851562 -0.554688 12.9375 0 10.65625 0 L 3.265625 0 L 3.265625 -23.71875 L 9.734375 -23.71875 C 12.210938 -23.71875 14.132812 -23.210938 15.5 -22.203125 C 16.875 -21.191406 17.5625 -19.707031 17.5625 -17.75 C 17.5625 -16.507812 17.296875 -15.4375 16.765625 -14.53125 C 16.234375 -13.632812 15.476562 -12.914062 14.5 -12.375 Z M 7.0625 -13.625 L 10.359375 -13.625 C 11.441406 -13.625 12.257812 -13.9375 12.8125 -14.5625 C 13.375 -15.1875 13.65625 -15.976562 13.65625 -16.9375 C 13.65625 -17.976562 13.320312 -18.757812 12.65625 -19.28125 C 11.988281 -19.800781 11.070312 -20.0625 9.90625 -20.0625 L 7.0625 -20.0625 Z M 10.484375 -3.515625 C 11.765625 -3.515625 12.804688 -3.789062 13.609375 -4.34375 C 14.421875 -4.90625 14.828125 -5.71875 14.828125 -6.78125 C 14.828125 -7.90625 14.382812 -8.71875 13.5 -9.21875 C 12.625 -9.71875 11.535156 -9.96875 10.234375 -9.96875 L 7.0625 -9.96875 L 7.0625 -3.515625 Z M 10.484375 -3.515625 "/></g></g></g></svg>