<svg xmlns="http://www.w3.org/2000/svg" xmlns:xlink="http://www.w3.org/1999/xlink" width="500" zoomAndPan="magnify" viewBox="0 0 375 374.999991" height="500" preserveAspectRatio="xMidYMid meet" version="1.0"><defs><g/><clipPath id="9ea91ccc42"><path d="M 100.875 15.023438 L 274.125 15.023438 L 274.125 210.023438 L 100.875 210.023438 Z M 100.875 15.023438 " clip-rule="nonzero"/></clipPath><clipPath id="c3b1308e09"><path d="M 91.105469 27.148438 L 283.855469 27.148438 L 283.855469 198.148438 L 91.105469 198.148438 Z M 91.105469 27.148438 " clip-rule="nonzero"/></clipPath></defs><g clip-path="url(#9ea91ccc42)"><path fill="#ffffff" d="M 168.75 28.101562 C 168.761719 28.09375 168.78125 28.09375 168.792969 28.089844 L 168.792969 15.277344 L 173.058594 15.277344 L 173.058594 27.261719 C 177.070312 26.582031 181.179688 26.179688 185.355469 26.078125 L 185.355469 15.277344 L 189.621094 15.277344 L 189.621094 26.078125 C 193.804688 26.179688 197.90625 26.582031 201.917969 27.261719 L 201.917969 15.277344 L 206.183594 15.277344 L 206.183594 55.226562 L 201.917969 55.226562 L 201.917969 31.582031 C 197.910156 30.867188 193.804688 30.449219 189.621094 30.34375 L 189.621094 38.511719 L 185.355469 38.511719 L 185.355469 30.34375 C 181.171875 30.453125 177.066406 30.875 173.058594 31.582031 L 173.058594 55.222656 L 168.792969 55.222656 L 168.792969 32.460938 C 168.78125 32.464844 168.761719 32.464844 168.75 32.472656 Z M 161.355469 190.75 C 128.71875 179.804688 105.140625 148.933594 105.140625 112.667969 C 105.140625 76.390625 128.71875 45.523438 161.355469 34.574219 L 161.355469 30.089844 C 126.332031 41.199219 100.875 74.015625 100.875 112.667969 C 100.875 151.320312 126.332031 184.132812 161.355469 195.242188 Z M 206.183594 192.867188 L 206.183594 170.097656 L 201.917969 170.097656 L 201.917969 193.738281 C 197.910156 194.453125 193.804688 194.871094 189.621094 194.976562 L 189.621094 186.808594 L 185.355469 186.808594 L 185.355469 194.976562 C 181.171875 194.867188 177.066406 194.445312 173.058594 193.738281 L 173.058594 170.097656 L 168.792969 170.097656 L 168.792969 192.867188 C 168.78125 192.859375 168.761719 192.859375 168.75 192.855469 L 168.75 197.226562 C 168.761719 197.230469 168.78125 197.230469 168.792969 197.238281 L 168.792969 210.050781 L 173.058594 210.050781 L 173.058594 198.066406 C 177.070312 198.742188 181.179688 199.144531 185.355469 199.25 L 185.355469 210.050781 L 189.621094 210.050781 L 189.621094 199.25 C 193.796875 199.144531 197.90625 198.742188 201.917969 198.066406 L 201.917969 210.050781 L 206.183594 210.050781 Z M 213.582031 30.078125 L 213.582031 34.5625 C 246.238281 45.5 269.835938 76.378906 269.835938 112.667969 C 269.835938 148.953125 246.238281 179.835938 213.582031 190.769531 L 213.582031 195.257812 C 248.628906 184.160156 274.101562 151.335938 274.101562 112.667969 C 274.101562 73.996094 248.628906 41.171875 213.582031 30.078125 Z M 213.582031 30.078125 " fill-opacity="1" fill-rule="nonzero"/></g><g fill="#ffffff" fill-opacity="1"><g transform="translate(72.555086, 274.319221)"><g><path d="M 15.703125 -18.90625 C 13.660156 -19.96875 11.847656 -20.5 10.265625 -20.5 C 9.085938 -20.5 8.15625 -20.238281 7.46875 -19.71875 C 6.789062 -19.195312 6.453125 -18.476562 6.453125 -17.5625 C 6.453125 -16.675781 6.878906 -15.929688 7.734375 -15.328125 C 8.597656 -14.734375 9.800781 -14.144531 11.34375 -13.5625 C 12.519531 -13.144531 13.523438 -12.671875 14.359375 -12.140625 C 15.191406 -11.609375 15.878906 -10.882812 16.421875 -9.96875 C 16.960938 -9.0625 17.234375 -7.910156 17.234375 -6.515625 C 17.234375 -5.253906 16.921875 -4.113281 16.296875 -3.09375 C 15.671875 -2.070312 14.757812 -1.253906 13.5625 -0.640625 C 12.363281 -0.0351562 10.953125 0.265625 9.328125 0.265625 C 7.890625 0.265625 6.472656 0.0390625 5.078125 -0.40625 C 3.691406 -0.851562 2.457031 -1.46875 1.375 -2.25 L 3.0625 -5.21875 C 3.863281 -4.601562 4.8125 -4.09375 5.90625 -3.6875 C 7.007812 -3.289062 8.03125 -3.09375 8.96875 -3.09375 C 10.113281 -3.09375 11.117188 -3.367188 11.984375 -3.921875 C 12.859375 -4.484375 13.296875 -5.335938 13.296875 -6.484375 C 13.296875 -7.398438 12.929688 -8.160156 12.203125 -8.765625 C 11.472656 -9.378906 10.457031 -9.9375 9.15625 -10.4375 C 7.8125 -10.925781 6.691406 -11.414062 5.796875 -11.90625 C 4.910156 -12.394531 4.144531 -13.078125 3.5 -13.953125 C 2.863281 -14.835938 2.546875 -15.945312 2.546875 -17.28125 C 2.546875 -19.207031 3.203125 -20.765625 4.515625 -21.953125 C 5.828125 -23.140625 7.5625 -23.773438 9.71875 -23.859375 C 11.28125 -23.859375 12.648438 -23.675781 13.828125 -23.3125 C 15.015625 -22.957031 16.117188 -22.457031 17.140625 -21.8125 Z M 15.703125 -18.90625 "/></g></g></g><g fill="#ffffff" fill-opacity="1"><g transform="translate(117.58644, 274.319221)"><g><path d="M 22.59375 1.046875 L 16.984375 -13.109375 L 10.6875 1.109375 L 1.203125 -23.59375 L 5.640625 -23.59375 L 11.171875 -7.75 L 15.125 -17.859375 L 12.84375 -23.59375 L 16.59375 -23.59375 L 22.6875 -8.21875 L 27.765625 -23.59375 L 31.84375 -23.59375 Z M 22.59375 1.046875 "/></g></g></g><g fill="#ffffff" fill-opacity="1"><g transform="translate(176.691542, 274.319221)"><g><path d="M 22.453125 -23.734375 L 11.828125 1.109375 L 1.203125 -23.734375 L 5.734375 -23.734375 L 12 -8.140625 L 17.984375 -23.734375 Z M 22.453125 -23.734375 "/></g></g></g><g fill="#ffffff" fill-opacity="1"><g transform="translate(226.41415, 274.319221)"><g><path d="M 24.21875 -23.734375 L 24.21875 0.84375 L 24.125 0.84375 L 7 -15.75 L 7.109375 0 L 3.265625 0 L 3.265625 -24.546875 L 3.453125 -24.546875 L 20.5 -7.75 L 20.4375 -23.734375 Z M 24.21875 -23.734375 "/></g></g></g><g fill="#ffffff" fill-opacity="1"><g transform="translate(279.980976, 274.319221)"><g><path d="M 7 -13.421875 L 7.53125 -14.171875 L 16.453125 -23.734375 L 21.34375 -23.734375 L 11.53125 -13.359375 L 21.703125 0 L 16.890625 0 L 8.765625 -10.953125 L 7.109375 -9.328125 L 7.109375 0 L 3.265625 0 L 3.265625 -23.734375 L 7.109375 -23.734375 L 7.109375 -14.640625 Z M 7 -13.421875 "/></g></g></g><g fill="#ffffff" fill-opacity="1"><g transform="translate(139.955442, 326.093956)"><g><path d="M 7.0625 -23.71875 L 7.0625 -3.65625 L 18.765625 -3.65625 L 18.765625 0 L 3.265625 0 L 3.265625 -23.71875 Z M 7.0625 -23.71875 "/></g></g></g><g fill="#ffffff" fill-opacity="1"><g transform="translate(176.112709, 326.093956)"><g><path d="M 15.4375 -5.578125 L 6.8125 -5.578125 L 4.53125 0 L 0.78125 0 L 11.265625 -24.6875 L 11.5 -24.6875 L 21.984375 0 L 17.625 0 Z M 14.171875 -8.828125 L 11.203125 -16.328125 L 8.140625 -8.828125 Z M 14.171875 -8.828125 "/></g></g></g><g fill="#ffffff" fill-opacity="1"><g transform="translate(214.516833, 326.093956)"><g><path d="M 14.5 -12.375 C 15.820312 -11.832031 16.859375 -11.082031 17.609375 -10.125 C 18.359375 -9.175781 18.734375 -8.070312 18.734375 -6.8125 C 18.734375 -4.507812 17.957031 -2.796875 16.40625 -1.671875 C 14.851562 -0.554688 12.9375 0 10.65625 0 L 3.265625 0 L 3.265625 -23.71875 L 9.734375 -23.71875 C 12.210938 -23.71875 14.132812 -23.210938 15.5 -22.203125 C 16.875 -21.191406 17.5625 -19.707031 17.5625 -17.75 C 17.5625 -16.507812 17.296875 -15.4375 16.765625 -14.53125 C 16.234375 -13.632812 15.476562 -12.914062 14.5 -12.375 Z M 7.0625 -13.625 L 10.359375 -13.625 C 11.441406 -13.625 12.257812 -13.9375 12.8125 -14.5625 C 13.375 -15.1875 13.65625 -15.976562 13.65625 -16.9375 C 13.65625 -17.976562 13.320312 -18.757812 12.65625 -19.28125 C 11.988281 -19.800781 11.070312 -20.0625 9.90625 -20.0625 L 7.0625 -20.0625 Z M 10.484375 -3.515625 C 11.765625 -3.515625 12.804688 -3.789062 13.609375 -4.34375 C 14.421875 -4.90625 14.828125 -5.71875 14.828125 -6.78125 C 14.828125 -7.90625 14.382812 -8.71875 13.5 -9.21875 C 12.625 -9.71875 11.535156 -9.96875 10.234375 -9.96875 L 7.0625 -9.96875 L 7.0625 -3.515625 Z M 10.484375 -3.515625 "/></g></g></g><g clip-path="url(#c3b1308e09)"><path fill="#ffffff" d="M 270.960938 94.148438 C 270.964844 94.160156 270.964844 94.175781 270.972656 94.191406 L 283.621094 94.191406 L 283.621094 98.402344 L 271.789062 98.402344 C 272.457031 102.359375 272.855469 106.417969 272.957031 110.539062 L 283.621094 110.539062 L 283.621094 114.75 L 272.957031 114.75 C 272.855469 118.878906 272.457031 122.925781 271.789062 126.886719 L 283.621094 126.886719 L 283.621094 131.097656 L 244.183594 131.097656 L 244.183594 126.886719 L 267.523438 126.886719 C 268.226562 122.933594 268.644531 118.878906 268.746094 114.75 L 260.683594 114.75 L 260.683594 110.539062 L 268.746094 110.539062 C 268.636719 106.410156 268.222656 102.355469 267.523438 98.402344 L 244.191406 98.402344 L 244.191406 94.191406 L 266.65625 94.191406 C 266.652344 94.175781 266.652344 94.160156 266.644531 94.148438 Z M 110.410156 86.847656 C 121.21875 54.632812 151.6875 31.363281 187.488281 31.363281 C 223.292969 31.363281 253.761719 54.632812 264.570312 86.847656 L 269 86.847656 C 258.03125 52.277344 225.640625 27.148438 187.488281 27.148438 C 149.335938 27.148438 116.945312 52.277344 105.976562 86.847656 Z M 108.324219 131.097656 L 130.796875 131.097656 L 130.796875 126.886719 L 107.464844 126.886719 C 106.757812 122.933594 106.34375 118.878906 106.242188 114.75 L 114.304688 114.75 L 114.304688 110.539062 L 106.242188 110.539062 C 106.351562 106.410156 106.765625 102.355469 107.464844 98.402344 L 130.796875 98.402344 L 130.796875 94.191406 L 108.324219 94.191406 C 108.328125 94.175781 108.328125 94.160156 108.335938 94.148438 L 104.019531 94.148438 C 104.015625 94.160156 104.015625 94.175781 104.007812 94.191406 L 91.363281 94.191406 L 91.363281 98.402344 L 103.191406 98.402344 C 102.523438 102.359375 102.125 106.417969 102.023438 110.539062 L 91.363281 110.539062 L 91.363281 114.75 L 102.023438 114.75 C 102.125 118.871094 102.523438 122.925781 103.191406 126.886719 L 91.363281 126.886719 L 91.363281 131.097656 Z M 269.011719 138.402344 L 264.582031 138.402344 C 253.789062 170.632812 223.304688 193.925781 187.488281 193.925781 C 151.667969 193.925781 121.1875 170.632812 110.394531 138.402344 L 105.964844 138.402344 C 116.914062 172.992188 149.316406 198.136719 187.488281 198.136719 C 225.660156 198.136719 258.058594 172.992188 269.011719 138.402344 Z M 269.011719 138.402344 " fill-opacity="1" fill-rule="nonzero"/></g></svg>