<svg xmlns="http://www.w3.org/2000/svg" xmlns:xlink="http://www.w3.org/1999/xlink" width="500" zoomAndPan="magnify" viewBox="0 0 375 374.999991" height="500" preserveAspectRatio="xMidYMid meet" version="1.0"><defs><clipPath id="c88714262b"><path d="M 75.234375 88.132812 L 299.484375 88.132812 L 299.484375 286.882812 L 75.234375 286.882812 Z M 75.234375 88.132812 " clip-rule="nonzero"/></clipPath><clipPath id="2c2429e752"><path d="M 132.257812 125.238281 L 242.507812 125.238281 L 242.507812 249.738281 L 132.257812 249.738281 Z M 132.257812 125.238281 " clip-rule="nonzero"/></clipPath></defs><g clip-path="url(#c88714262b)"><path fill="#000000" d="M 284.46875 166.003906 C 284.476562 166.019531 284.476562 166.039062 284.484375 166.054688 L 299.199219 166.054688 L 299.199219 170.949219 L 285.433594 170.949219 C 286.210938 175.550781 286.675781 180.261719 286.792969 185.054688 L 299.199219 185.054688 L 299.199219 189.949219 L 286.792969 189.949219 C 286.675781 194.746094 286.210938 199.453125 285.433594 204.054688 L 299.199219 204.054688 L 299.199219 208.949219 L 253.316406 208.949219 L 253.316406 204.054688 L 280.472656 204.054688 C 281.289062 199.460938 281.773438 194.746094 281.894531 189.949219 L 272.511719 189.949219 L 272.511719 185.054688 L 281.894531 185.054688 C 281.765625 180.257812 281.285156 175.542969 280.472656 170.949219 L 253.320312 170.949219 L 253.320312 166.054688 L 279.464844 166.054688 C 279.457031 166.039062 279.457031 166.019531 279.449219 166.003906 Z M 97.664062 157.519531 C 110.238281 120.078125 145.691406 93.027344 187.34375 93.027344 C 229.007812 93.027344 264.460938 120.078125 277.035156 157.519531 L 282.1875 157.519531 C 269.425781 117.335938 231.738281 88.132812 187.34375 88.132812 C 142.953125 88.132812 105.265625 117.335938 92.503906 157.519531 Z M 95.234375 208.949219 L 121.382812 208.949219 L 121.382812 204.054688 L 94.234375 204.054688 C 93.414062 199.460938 92.929688 194.746094 92.8125 189.949219 L 102.195312 189.949219 L 102.195312 185.054688 L 92.8125 185.054688 C 92.9375 180.257812 93.421875 175.542969 94.234375 170.949219 L 121.382812 170.949219 L 121.382812 166.054688 L 95.234375 166.054688 C 95.242188 166.039062 95.242188 166.019531 95.25 166.003906 L 90.230469 166.003906 C 90.222656 166.019531 90.222656 166.039062 90.214844 166.054688 L 75.5 166.054688 L 75.5 170.949219 L 89.261719 170.949219 C 88.484375 175.550781 88.023438 180.261719 87.90625 185.054688 L 75.5 185.054688 L 75.5 189.949219 L 87.90625 189.949219 C 88.023438 194.738281 88.484375 199.453125 89.261719 204.054688 L 75.5 204.054688 L 75.5 208.949219 Z M 282.199219 217.441406 L 277.046875 217.441406 C 264.488281 254.902344 229.023438 281.972656 187.34375 281.972656 C 145.667969 281.972656 110.203125 254.902344 97.644531 217.441406 L 92.492188 217.441406 C 105.230469 257.644531 142.933594 286.871094 187.34375 286.871094 C 231.757812 286.871094 269.460938 257.644531 282.199219 217.441406 Z M 282.199219 217.441406 " fill-opacity="1" fill-rule="nonzero"/></g><g clip-path="url(#2c2429e752)"><path fill="#000000" d="M 175.453125 133.578125 C 175.460938 133.574219 175.472656 133.574219 175.480469 133.570312 L 175.480469 125.398438 L 178.199219 125.398438 L 178.199219 133.039062 C 180.75 132.609375 183.363281 132.351562 186.023438 132.285156 L 186.023438 125.398438 L 188.738281 125.398438 L 188.738281 132.285156 C 191.398438 132.351562 194.007812 132.609375 196.5625 133.039062 L 196.5625 125.398438 L 199.277344 125.398438 L 199.277344 150.871094 L 196.5625 150.871094 L 196.5625 135.796875 C 194.011719 135.339844 191.398438 135.074219 188.738281 135.007812 L 188.738281 140.214844 L 186.023438 140.214844 L 186.023438 135.007812 C 183.359375 135.078125 180.746094 135.34375 178.199219 135.796875 L 178.199219 150.867188 L 175.480469 150.867188 L 175.480469 136.355469 C 175.472656 136.359375 175.460938 136.359375 175.453125 136.363281 Z M 170.75 237.289062 C 149.980469 230.308594 134.972656 210.625 134.972656 187.496094 C 134.972656 164.367188 149.980469 144.683594 170.75 137.703125 L 170.75 134.84375 C 148.457031 141.929688 132.257812 162.851562 132.257812 187.496094 C 132.257812 212.144531 148.457031 233.066406 170.75 240.152344 Z M 199.277344 238.636719 L 199.277344 224.121094 L 196.5625 224.121094 L 196.5625 239.191406 C 194.011719 239.648438 191.398438 239.914062 188.738281 239.980469 L 188.738281 234.773438 L 186.023438 234.773438 L 186.023438 239.980469 C 183.359375 239.910156 180.746094 239.644531 178.199219 239.191406 L 178.199219 224.121094 L 175.480469 224.121094 L 175.480469 238.636719 C 175.472656 238.632812 175.460938 238.632812 175.453125 238.628906 L 175.453125 241.414062 C 175.460938 241.417969 175.472656 241.417969 175.480469 241.421875 L 175.480469 249.59375 L 178.199219 249.59375 L 178.199219 241.953125 C 180.75 242.382812 183.363281 242.640625 186.023438 242.707031 L 186.023438 249.59375 L 188.738281 249.59375 L 188.738281 242.707031 C 191.394531 242.640625 194.007812 242.382812 196.5625 241.953125 L 196.5625 249.59375 L 199.277344 249.59375 Z M 203.988281 134.835938 L 203.988281 137.695312 C 224.769531 144.667969 239.785156 164.359375 239.785156 187.496094 C 239.785156 210.636719 224.769531 230.328125 203.988281 237.300781 L 203.988281 240.160156 C 226.289062 233.085938 242.5 212.15625 242.5 187.496094 C 242.5 162.839844 226.289062 141.910156 203.988281 134.835938 Z M 203.988281 134.835938 " fill-opacity="1" fill-rule="nonzero"/></g></svg>